<?xml version="1.0" encoding="UTF-8" standalone="no"?>
<!-- Created with Inkscape (http://www.inkscape.org/) -->
<svg xmlns:inkscape="http://www.inkscape.org/namespaces/inkscape" xmlns:rdf="http://www.w3.org/1999/02/22-rdf-syntax-ns#" xmlns="http://www.w3.org/2000/svg" xmlns:xlink="http://www.w3.org/1999/xlink" xmlns:ns1="http://sozi.baierouge.fr" xmlns:cc="http://creativecommons.org/ns#" xmlns:dc="http://purl.org/dc/elements/1.1/" xmlns:sodipodi="http://sodipodi.sourceforge.net/DTD/sodipodi-0.dtd" id="svg3334" sodipodi:docname="Nou document 12" viewBox="0 0 450 450" version="1.1" inkscape:version="0.48.0 r9654">
  <sodipodi:namedview id="base" bordercolor="#666666" inkscape:pageshadow="2" inkscape:window-y="0" pagecolor="#ffffff" inkscape:window-height="1156" inkscape:window-maximized="0" inkscape:zoom="2.1133333" inkscape:window-x="4" showgrid="false" borderopacity="1.0" inkscape:current-layer="capa1" inkscape:cx="158.04416" inkscape:cy="225" inkscape:window-width="1596" inkscape:pageopacity="0.0" inkscape:document-units="px"/>
  <g id="capa1" inkscape:label="Capa 1" inkscape:groupmode="layer" transform="translate(0 -602.36)">
    <g id="g3315" transform="translate(-295 88.059)">
      <path id="path3036" style="fill:#b3b3b3;" inkscape:connector-curvature="0" d="m706.56 739.3c0-103.04-83.526-186.56-186.56-186.56-103.04 0-186.56 83.525-186.56 186.56s83.525 186.56 186.56 186.56 186.56-83.525 186.56-186.56m-14.375 0c0 95.098-77.09 172.19-172.19 172.19-95.098 0-172.19-77.09-172.19-172.19 0-95.098 77.09-172.19 172.19-172.19 95.098 0 172.19 77.09 172.19 172.19"/>
      <path id="path3040" style="fill:#69e2f5" inkscape:connector-curvature="0" d="m635.78 673.78c-22.778-13.15-51.902-5.3462-65.052 17.431 22.778 13.15 51.901 5.3462 65.052-17.431m-30.3 30.3c-22.778-13.149-51.902-5.3462-65.052 17.432 22.778 13.15 51.902 5.3462 65.052-17.432m-30.305 30.306c-22.778-13.151-51.902-5.3475-65.052 17.431 22.778 13.15 51.901 5.3462 65.052-17.431m-30.305 30.305c-22.778-13.151-51.902-5.3475-65.052 17.431 22.778 13.151 51.901 5.3462 65.052-17.431m-93.474 43.131c9.725-14.598 11.031-34.006 1.6675-50.224-21.385 12.346-29.566 38.774-19.604 60.809l-29.245 29.246 8.2988 8.2988 41.315-41.315c22.02 9.91 48.402 1.7212 60.736-19.641-21.408-12.36-48.414-6.2038-62.504 13.49l-0.665-0.66375zm31.972-80.529c-22.778 13.15-30.581 42.275-17.431 65.052 22.778-13.151 30.581-42.276 17.431-65.052m30.305-30.305c-22.778 13.15-30.581 42.275-17.431 65.052 22.778-13.151 30.581-42.276 17.431-65.052m30.305-30.306c-22.778 13.151-30.581 42.276-17.431 65.052 22.778-13.15 30.581-42.275 17.431-65.052m30.305-30.305c-22.778 13.151-30.581 42.276-17.431 65.052 22.778-13.15 30.582-42.274 17.431-65.052m55.144-13.731c-26.301 0-47.622 21.321-47.622 47.622 26.301 0 47.622-21.321 47.622-47.622"/>
      <path id="path3044" style="fill:rgba(255, 117, 117, 0.77)" inkscape:connector-curvature="0" d="m396.33 638.52 22.89-22.89 224.45 224.46-22.89 22.889l-224.45-224.46z"/>
    </g>
  </g>
  <metadata>
    <rdf:RDF>
      <cc:Work>
        <dc:format>image/svg+xml</dc:format>
        <dc:type rdf:resource="http://purl.org/dc/dcmitype/StillImage"/>
        <cc:license rdf:resource="http://creativecommons.org/licenses/publicdomain/"/>
        <dc:publisher>
          <cc:Agent rdf:about="http://openclipart.org/">
            <dc:title>Openclipart</dc:title>
          </cc:Agent>
        </dc:publisher>
      </cc:Work>
      <cc:License rdf:about="http://creativecommons.org/licenses/publicdomain/">
        <cc:permits rdf:resource="http://creativecommons.org/ns#Reproduction"/>
        <cc:permits rdf:resource="http://creativecommons.org/ns#Distribution"/>
        <cc:permits rdf:resource="http://creativecommons.org/ns#DerivativeWorks"/>
      </cc:License>
    </rdf:RDF>
  </metadata>
</svg>
